<?xml version="1.0" standalone="no"?><!DOCTYPE svg PUBLIC "-//W3C//DTD SVG 1.1//EN" "http://www.w3.org/Graphics/SVG/1.1/DTD/svg11.dtd"><svg t="1605096113181" class="icon" viewBox="0 0 1024 1024" version="1.1" xmlns="http://www.w3.org/2000/svg" p-id="3414" xmlns:xlink="http://www.w3.org/1999/xlink" width="32" height="32"><defs><style type="text/css"></style></defs><path d="M512.01 320.01m-256 0a256 256 0 1 0 512 0 256 256 0 1 0-512 0Z" p-id="3415"></path><path d="M884.01 640.01h-744c-6.6 0-12 5.4-12 12v296.16c0 6.6 5.4 12 12 12h744c6.6 0 12-5.4 12-12V652.01c0-6.6-5.4-12-12-12z m-340.06 244c0 6.6-5.4 12-12 12h-40c-6.6 0-12-5.4-12-12v-104c0-6.6 5.4-12 12-12h40c6.6 0 12 5.4 12 12v104z" p-id="3416"></path></svg>